<?xml version="1.0" standalone="no"?><!DOCTYPE svg PUBLIC "-//W3C//DTD SVG 1.1//EN" "http://www.w3.org/Graphics/SVG/1.1/DTD/svg11.dtd">

<svg class="icon" style="width: 1em; height: 1em;vertical-align: middle;fill: currentColor;overflow: hidden;" viewBox="0 0 1024 1024" version="1.1" xmlns="http://www.w3.org/2000/svg" p-id="1597"><path d="M876.088889 580.266667c-45.511111-22.755556-59.164444-40.96-59.164445-77.368889 0-34.133333 13.653333-52.337778 59.164445-77.368889 25.031111-15.928889 27.306667-29.582222 27.306667-52.337778v-129.706667c0-40.96-34.133333-75.093333-75.093334-75.093333H182.044444c-40.96 0-75.093333 34.133333-75.093333 75.093333v129.706667c0 20.48 2.275556 38.684444 27.306667 52.337778 18.204444 9.102222 59.164444 31.857778 59.164444 77.368889 0 50.062222-29.582222 65.991111-56.888889 75.093333h-2.275555c-25.031111 15.928889-27.306667 40.96-27.306667 52.337778v129.706667c0 40.96 34.133333 75.093333 75.093333 75.093333h646.257778c40.96 0 75.093333-34.133333 75.093334-75.093333v-129.706667c0-25.031111-9.102222-34.133333-27.306667-50.062222z m-250.311111-45.511111c13.653333 0 25.031111 11.377778 25.031111 25.031111s-11.377778 25.031111-25.031111 25.031111h-95.573334v95.573333c0 13.653333-11.377778 25.031111-25.031111 25.031111s-25.031111-11.377778-25.031111-25.031111v-95.573333h-95.573333c-13.653333 0-25.031111-11.377778-25.031111-25.031111s11.377778-25.031111 25.031111-25.031111h95.573333v-59.164445h-102.4c-13.653333 0-25.031111-11.377778-25.031111-25.031111s11.377778-25.031111 25.031111-25.031111h75.093334l-79.644445-79.644445c-9.102222-9.102222-9.102222-25.031111 0-34.133333 9.102222-9.102222 25.031111-9.102222 34.133333 0l97.848889 97.848889 97.848889-97.848889c9.102222-9.102222 25.031111-9.102222 34.133334 0 9.102222 9.102222 9.102222 25.031111 0 34.133333l-79.644445 79.644445h72.817778c13.653333 0 25.031111 11.377778 25.031111 25.031111s-11.377778 25.031111-25.031111 25.031111h-102.4v59.164445h97.848889z" fill="" p-id="1598"></path></svg>
