<?xml version="1.0" standalone="no"?><!DOCTYPE svg PUBLIC "-//W3C//DTD SVG 1.1//EN" "http://www.w3.org/Graphics/SVG/1.1/DTD/svg11.dtd">

<svg class="icon" style="width: 1em; height: 1em;vertical-align: middle;fill: currentColor;overflow: hidden;" viewBox="0 0 1024 1024" version="1.1" xmlns="http://www.w3.org/2000/svg" p-id="1832"><path d="M511.999 11.015c-276.765 0-500.983 224.222-500.983 500.984 0 276.703 224.219 500.987 500.983 500.987 276.759 0 500.984-224.283 500.984-500.987 0-276.762-224.226-500.984-500.984-500.984v0zM558.421 837.754h-134.923v-125.265h134.923v125.265zM636.343 503.437c-59.388 41.098-85.629 93.699-78.78 157.557h-133.824c-6.849-73.031 21.47-145.202 83.121-197.741 2.267-2.263 5.692-5.69 10.281-10.275 47.945-41.101 73.634-65.262 73.634-96.823 0-42.143-34.801-63.118-62.566-65.444-35.29 0-88.133 15.476-88.076 99.694h-121.408c0-77.554 30.339-142.264 78.292-174.252 36.516-27.4 88.622-39.142 136.575-39.142 116.452 6.85 176.947 71.865 181.527 179.145 4.53 45.751-21.713 94.804-78.775 147.282v0z" p-id="1833"></path></svg>
