<?xml version="1.0" standalone="no"?><!DOCTYPE svg PUBLIC "-//W3C//DTD SVG 1.1//EN" "http://www.w3.org/Graphics/SVG/1.1/DTD/svg11.dtd">

<svg class="icon" style="width: 1em; height: 1em;vertical-align: middle;fill: currentColor;overflow: hidden;" viewBox="0 0 1024 1024" version="1.1" xmlns="http://www.w3.org/2000/svg" p-id="3315"><path d="M534.755556 309.475556L912.497778 136.533333c-15.928889-27.306667-45.511111-45.511111-79.644445-45.511111h-614.4c-29.582222 0-56.888889 15.928889-72.817777 38.684445l389.12 179.768889z" fill="" p-id="3316"></path><path d="M543.857778 354.986667c-2.275556 2.275556-6.826667 2.275556-9.102222 2.275555-2.275556 0-6.826667 0-9.102223-2.275555L129.706667 170.666667v675.84c0 50.062222 40.96 91.022222 91.022222 91.022222h614.4c50.062222 0 91.022222-40.96 91.022222-91.022222V182.044444l-382.293333 172.942223z m95.573333 288.995555c13.653333 0 22.755556 9.102222 22.755556 22.755556s-9.102222 22.755556-22.755556 22.755555h-91.022222v88.746667c0 13.653333-9.102222 22.755556-22.755556 22.755556s-22.755556-9.102222-22.755555-22.755556v-88.746667h-91.022222c-13.653333 0-22.755556-9.102222-22.755556-22.755555s9.102222-22.755556 22.755556-22.755556h91.022222v-54.613333H409.6c-13.653333 0-22.755556-9.102222-22.755556-22.755556s9.102222-22.755556 22.755556-22.755555h68.266667l-75.093334-75.093334c-9.102222-9.102222-9.102222-22.755556 0-31.857777s22.755556-9.102222 31.857778 0l91.022222 91.022222 91.022223-91.022222c9.102222-9.102222 22.755556-9.102222 31.857777 0s9.102222 22.755556 0 31.857777l-75.093333 75.093334h68.266667c13.653333 0 22.755556 9.102222 22.755555 22.755555s-9.102222 22.755556-22.755555 22.755556h-93.297778v54.613333h91.022222z" fill="" p-id="3317"></path></svg>
