<?xml version="1.0" standalone="no"?><!DOCTYPE svg PUBLIC "-//W3C//DTD SVG 1.1//EN" "http://www.w3.org/Graphics/SVG/1.1/DTD/svg11.dtd">

<svg version="1.1" id="&#x56FE;&#x5C42;_1" xmlns="http://www.w3.org/2000/svg" xmlns:xlink="http://www.w3.org/1999/xlink" x="0px"
	 y="0px" viewBox="0 0 160 160" style="enable-background:new 0 0 160 160;" xml:space="preserve">
<g>
	<path style="fill:#FFFFFF;" d="M103.402,57.794c1.526-4.134,4.245-9.052,4.245-10.4c0-3.908-9.671-5.195-16.924-5.195
		s-16.89,1.647-16.89,5.555c0,1.329,2.722,6.017,4.2,10.044c-13.604,5.011-23.283,17.837-23.283,32.877
		c0,19.403,16.105,23.468,35.972,23.468s35.972-4.064,35.972-23.468C126.695,75.632,117.011,62.803,103.402,57.794z M104.083,96.951
		c1.301,1.301,1.301,3.429,0,4.73l-0.357,0.357c-1.301,1.301-3.429,1.301-4.73,0l-8.272-8.272l-8.272,8.272
		c-1.301,1.301-3.429,1.301-4.73,0l-0.357-0.357c-1.301-1.301-1.301-3.429,0-4.73l8.272-8.272l-8.272-8.272
		c-1.301-1.301-1.301-3.429,0-4.73l0.357-0.357c1.301-1.301,3.429-1.301,4.73,0l8.273,8.272l8.272-8.272
		c1.301-1.301,3.429-1.301,4.73,0l0.357,0.357c1.301,1.301,1.301,3.429,0,4.73l-8.272,8.272L104.083,96.951z"/>
	<g>
		<polyline style="fill:none;stroke:#FFFFFF;stroke-width:8;stroke-linecap:round;stroke-miterlimit:10;" points="133.309,8.406
			136.916,20.813 124.51,24.419 		"/>
		<path style="fill:none;stroke:#FFFFFF;stroke-width:8;stroke-linecap:round;stroke-miterlimit:10;" d="M131.437,17.715
			C117.268,8.24,99.751,3.63,81.511,5.924C41.3,10.983,12.803,47.681,17.862,87.893S59.619,156.6,99.83,151.542
			c18.24-2.295,34.069-11.1,45.45-23.79"/>
	</g>
</g>
</svg>


