<?xml version="1.0" standalone="no"?><!DOCTYPE svg PUBLIC "-//W3C//DTD SVG 1.1//EN" "http://www.w3.org/Graphics/SVG/1.1/DTD/svg11.dtd">

<svg version="1.1" id="&#x56FE;&#x5C42;_1" xmlns="http://www.w3.org/2000/svg" xmlns:xlink="http://www.w3.org/1999/xlink" x="0px"
	 y="0px" viewBox="0 0 160 160" style="enable-background:new 0 0 160 160;" xml:space="preserve">
<g>
	<path style="fill:#FFFFFF;" d="M118.804,42.996H61.549c-4.039,0-7.344,2.644-7.344,5.875v60.193c0,3.231,3.305,5.875,7.344,5.875
		h57.255c4.039,0,7.344-2.644,7.344-5.875V48.871C126.148,45.64,122.843,42.996,118.804,42.996z M90.176,101.952
		c-2.384,0-4.317-1.933-4.317-4.317c0-2.384,1.933-4.317,4.317-4.317s4.317,1.933,4.317,4.317
		C94.493,100.019,92.56,101.952,90.176,101.952z M90.176,89.078c0,0-7.194-21.872-7.194-25.865c0-3.993,3.221-7.23,7.194-7.23
		s7.194,3.237,7.194,7.23C97.371,67.207,90.176,89.078,90.176,89.078z"/>
	<g>
		<polyline style="fill:none;stroke:#FFFFFF;stroke-width:8;stroke-linecap:round;stroke-miterlimit:10;" points="133.391,8.326
			136.998,20.732 124.591,24.339 		"/>
		<path style="fill:none;stroke:#FFFFFF;stroke-width:8;stroke-linecap:round;stroke-miterlimit:10;" d="M131.519,17.635
			C117.35,8.16,99.833,3.549,81.593,5.844c-40.211,5.059-68.708,41.757-63.649,81.968s41.757,68.708,81.968,63.649
			c18.24-2.295,34.069-11.1,45.45-23.79"/>
	</g>
</g>
</svg>

