<?xml version="1.0" standalone="no"?><!DOCTYPE svg PUBLIC "-//W3C//DTD SVG 1.1//EN" "http://www.w3.org/Graphics/SVG/1.1/DTD/svg11.dtd">

<svg version="1.1" id="&#x56FE;&#x5C42;_1" xmlns="http://www.w3.org/2000/svg" xmlns:xlink="http://www.w3.org/1999/xlink" x="0px"
	 y="0px" viewBox="0 0 160 160" style="enable-background:new 0 0 160 160;" xml:space="preserve">
<g>
	<path style="fill:#FFFFFF;" d="M103.401,57.637c1.526-4.134,4.245-9.052,4.245-10.4c0-3.908-9.671-5.195-16.924-5.195
		s-16.89,1.647-16.89,5.555c0,1.329,2.722,6.017,4.2,10.044C64.43,62.652,54.751,75.478,54.751,90.518
		c0,19.403,16.105,23.468,35.972,23.468s35.972-4.064,35.972-23.468C126.694,75.474,117.011,62.645,103.401,57.637z M109.595,78.863
		L89.076,99.382c-0.82,0.82-1.944,1.145-3.017,1.004c-1.073,0.141-2.197-0.184-3.017-1.004L71.85,88.19
		c-1.399-1.399-1.399-3.688,0-5.087h0c1.399-1.399,3.688-1.399,5.087,0l9.122,9.122l18.449-18.449c1.399-1.399,3.688-1.399,5.087,0
		h0C110.994,75.175,110.994,77.464,109.595,78.863z"/>
	<g>
		<polyline style="fill:none;stroke:#FFFFFF;stroke-width:8;stroke-linecap:round;stroke-miterlimit:10;" points="133.308,8.406
			136.915,20.813 124.508,24.419 		"/>
		<path style="fill:none;stroke:#FFFFFF;stroke-width:8;stroke-linecap:round;stroke-miterlimit:10;" d="M131.436,17.715
			C117.267,8.24,99.75,3.63,81.51,5.924c-40.211,5.059-68.708,41.757-63.649,81.968s41.757,68.708,81.968,63.649
			c18.24-2.295,34.069-11.1,45.45-23.79"/>
	</g>
</g>
</svg>

