<?xml version="1.0" standalone="no"?><!DOCTYPE svg PUBLIC "-//W3C//DTD SVG 1.1//EN" "http://www.w3.org/Graphics/SVG/1.1/DTD/svg11.dtd">

<svg version="1.1" id="&#x56FE;&#x5C42;_1" xmlns="http://www.w3.org/2000/svg" xmlns:xlink="http://www.w3.org/1999/xlink" x="0px"
	 y="0px" viewBox="0 0 160 160" style="enable-background:new 0 0 160 160;" xml:space="preserve">
<g>
	<path style="fill:#FFFFFF;" d="M103.484,58.434c1.526-4.134,4.245-9.052,4.245-10.4c0-3.908-9.671-5.195-16.924-5.195
		s-16.89,1.647-16.89,5.555c0,1.329,2.722,6.017,4.2,10.044c-13.604,5.011-23.283,17.837-23.283,32.877
		c0,19.403,16.105,23.468,35.972,23.468s35.972-4.064,35.972-23.468C126.777,76.271,117.093,63.442,103.484,58.434z M100.518,89.396
		c1.589,0,2.878,1.289,2.878,2.878c0,1.589-1.289,2.878-2.878,2.878h-6.69v3.755c0,1.589-1.289,2.878-2.878,2.878
		s-2.878-1.289-2.878-2.878v-3.755h-6.979c-1.589,0-2.878-1.289-2.878-2.878c0-1.589,1.289-2.878,2.878-2.878h6.979v-1.262h-6.979
		c-1.589,0-2.878-1.289-2.878-2.878s1.289-2.878,2.878-2.878h6.833l-8.783-8.722c-1.128-1.12-1.134-2.942-0.014-4.069
		c1.119-1.128,2.942-1.135,4.069-0.014l7.721,7.668l7.463-7.638c1.111-1.137,2.933-1.156,4.07-0.047
		c1.137,1.111,1.158,2.933,0.047,4.07l-8.553,8.753h6.572c1.589,0,2.878,1.289,2.878,2.878s-1.289,2.878-2.878,2.878h-6.69v1.262
		H100.518z"/>
	<g>
		<polyline style="fill:none;stroke:#FFFFFF;stroke-width:8;stroke-linecap:round;stroke-miterlimit:10;" points="133.391,8.326
			136.998,20.732 124.591,24.339 		"/>
		<path style="fill:none;stroke:#FFFFFF;stroke-width:8;stroke-linecap:round;stroke-miterlimit:10;" d="M131.519,17.635
			C117.35,8.16,99.833,3.549,81.593,5.844c-40.211,5.059-68.708,41.757-63.649,81.968s41.757,68.708,81.968,63.649
			c18.24-2.295,34.069-11.1,45.45-23.79"/>
	</g>
</g>
</svg>

