<?xml version="1.0" standalone="no"?><!DOCTYPE svg PUBLIC "-//W3C//DTD SVG 1.1//EN" "http://www.w3.org/Graphics/SVG/1.1/DTD/svg11.dtd">

<svg version="1.1" id="&#x56FE;&#x5C42;_1" xmlns="http://www.w3.org/2000/svg" xmlns:xlink="http://www.w3.org/1999/xlink" x="0px"
	 y="0px" viewBox="0 0 160 160" style="enable-background:new 0 0 160 160;" xml:space="preserve">
<g>
	<path style="fill:#FFFFFF;" d="M120.55,42.91H63.295c-4.039,0-7.344,2.644-7.344,5.875v60.193c0,3.231,3.305,5.875,7.344,5.875
		h57.255c4.039,0,7.344-2.644,7.344-5.875V48.785C127.894,45.554,124.589,42.91,120.55,42.91z M76.896,89.073
		c0,2.77-2.266,5.036-5.036,5.036c-2.77,0-5.036-2.266-5.036-5.036l0,0c0-2.77,2.266-5.036,5.036-5.036
		C74.629,84.037,76.896,86.303,76.896,89.073L76.896,89.073z M77.644,62.001L71.565,68.6c-0.084,0.185-0.189,0.363-0.334,0.52
		c-0.729,0.791-1.973,0.842-2.765,0.113l-3.837-3.535c-0.791-0.729-0.842-1.973-0.113-2.765c0.729-0.791,1.973-0.842,2.765-0.113
		l2.319,2.137l5.166-5.607c0.729-0.791,1.973-0.842,2.765-0.113C78.322,59.966,78.373,61.21,77.644,62.001z M115.705,92.45h-25.9
		c-1.978,0-3.597-1.619-3.597-3.597s1.619-3.597,3.597-3.597h25.9c1.978,0,3.597,1.619,3.597,3.597S117.684,92.45,115.705,92.45z
		 M115.705,68.75h-25.9c-1.978,0-3.597-1.619-3.597-3.597c0-1.978,1.619-3.597,3.597-3.597h25.9c1.978,0,3.597,1.619,3.597,3.597
		C119.302,67.131,117.684,68.75,115.705,68.75z"/>
	<g>
		<polyline style="fill:none;stroke:#FFFFFF;stroke-width:8;stroke-linecap:round;stroke-miterlimit:10;" points="134.14,8.708
			137.747,21.114 125.34,24.721 		"/>
		<path style="fill:none;stroke:#FFFFFF;stroke-width:8;stroke-linecap:round;stroke-miterlimit:10;" d="M132.268,18.017
			C118.099,8.541,100.582,3.931,82.342,6.226c-40.211,5.059-68.708,41.757-63.649,81.968s41.757,68.708,81.968,63.649
			c18.24-2.295,34.069-11.1,45.45-23.79"/>
	</g>
</g>
</svg>

