<?xml version="1.0" standalone="no"?><!DOCTYPE svg PUBLIC "-//W3C//DTD SVG 1.1//EN" "http://www.w3.org/Graphics/SVG/1.1/DTD/svg11.dtd">

<svg class="icon" style="width: 1em; height: 1em;vertical-align: middle;fill: currentColor;overflow: hidden;" viewBox="0 0 1024 1024" version="1.1" xmlns="http://www.w3.org/2000/svg" p-id="2782"><path d="M384 352c-89.45 0-174.029-14.127-238.159-39.78-33.149-13.259-59.621-29.121-78.681-47.147C51.12 249.904 32 224.913 32 192c0-18.167 6.1-45.59 35.16-73.073 19.06-18.026 45.532-33.888 78.681-47.148C209.971 46.127 294.551 32 384 32s174.029 14.127 238.159 39.78c33.149 13.259 59.621 29.121 78.681 47.147C716.88 134.096 736 159.087 736 192c0 18.167-6.1 45.59-35.16 73.073-19.06 18.026-45.532 33.888-78.681 47.148C558.029 337.873 473.449 352 384 352z m0-256c-81.501 0-157.64 12.501-214.39 35.202C124.894 149.088 96 172.953 96 192s28.894 42.912 73.61 60.798C226.36 275.498 302.5 288 384 288s157.64-12.501 214.39-35.202C643.106 234.912 672 211.047 672 192s-28.894-42.912-73.61-60.798C541.64 108.502 465.5 96 384 96zM384 608c-89.45 0-174.029-14.127-238.159-39.78-33.149-13.259-59.621-29.121-78.681-47.147C38.1 493.591 32 466.167 32 448a32 32 0 0 1 64 0c0 19.047 28.894 42.912 73.61 60.798C226.36 531.498 302.5 544 384 544a32 32 0 0 1 0 64zM384 864c-89.45 0-174.029-14.127-238.159-39.78-33.149-13.259-59.621-29.121-78.681-47.147C38.1 749.591 32 722.167 32 704a32 32 0 0 1 64 0c0 19.047 28.894 42.912 73.61 60.798C226.36 787.498 302.5 800 384 800a32 32 0 0 1 0 64z" p-id="2783"></path><path d="M64 736a32 32 0 0 1-32-32V192a32 32 0 0 1 64 0v512a32 32 0 0 1-32 32zM704 288a32 32 0 0 1-32-32v-64a32 32 0 0 1 64 0v64a32 32 0 0 1-32 32zM736 608c-64.068 0-124.796-10.904-170.997-30.705C510.188 553.803 480 519.25 480 480s30.188-73.803 85.003-97.295C611.203 362.905 671.932 352 736 352s124.796 10.904 170.997 30.705C961.812 406.197 992 440.75 992 480s-30.188 73.803-85.003 97.295C860.797 597.095 800.068 608 736 608z m0-192c-54.791 0-107.928 9.306-145.787 25.53C567.956 451.07 544 467.177 544 480c0 8.99 14.462 24.862 46.213 38.47C628.072 534.694 681.21 544 736 544s107.928-9.306 145.787-25.53C904.044 508.93 928 492.823 928 480c0-8.99-14.462-24.862-46.213-38.47C843.928 425.306 790.79 416 736 416zM736 800c-64.068 0-124.796-10.904-170.997-30.705C510.188 745.803 480 711.25 480 672a32 32 0 0 1 64 0c0 8.99 14.462 24.862 46.213 38.47C628.072 726.694 681.21 736 736 736s107.928-9.306 145.787-25.53C904.044 700.93 928 684.823 928 672a32 32 0 0 1 64 0c0 39.25-30.188 73.803-85.003 97.295C860.797 789.095 800.068 800 736 800zM736 992c-64.068 0-124.796-10.904-170.997-30.705C510.188 937.803 480 903.25 480 864a32 32 0 0 1 64 0c0 8.99 14.462 24.862 46.213 38.47C628.072 918.694 681.21 928 736 928s107.928-9.306 145.787-25.53C904.044 892.93 928 876.823 928 864a32 32 0 0 1 64 0c0 39.25-30.188 73.803-85.003 97.295C860.797 981.095 800.068 992 736 992z" p-id="2784"></path><path d="M512 896a32 32 0 0 1-32-32V480a32 32 0 0 1 64 0v384a32 32 0 0 1-32 32zM960 896a32 32 0 0 1-32-32V480a32 32 0 0 1 64 0v384a32 32 0 0 1-32 32z" p-id="2785"></path></svg>
