<?xml version="1.0" standalone="no"?><!DOCTYPE svg PUBLIC "-//W3C//DTD SVG 1.1//EN" "http://www.w3.org/Graphics/SVG/1.1/DTD/svg11.dtd">

<svg class="icon" style="width: 1.0009765625em; height: 1em;vertical-align: middle;fill: currentColor;overflow: hidden;" viewBox="0 0 1025 1024" version="1.1" xmlns="http://www.w3.org/2000/svg" p-id="3197"><path d="M512.006875 0C229.23403 0 0 229.23403 0 512.016875 0 794.77597 229.23403 1024 512.006875 1024c282.774095 0 512.003125-229.22403 512.003125-511.983125C1024.01 229.23403 794.78097 0 512.006875 0zM761.219679 636.585777c0 4.922506-3.986255 8.895011-8.895011 8.895011l-8.907511 0-8.902511 0L529.810647 645.480788l0 133.516413 0 8.908761 0 8.893761c0 4.930006-3.985005 8.908761-8.907511 8.908761l-17.790022 0c-4.921256 0-8.901261-3.986255-8.901261-8.908761l0-8.893761 0-8.908761L494.211853 645.494538 289.506603 645.494538l-8.901261 0-8.908761 0c-4.921256 0-8.901261-3.986255-8.901261-8.893761l0-17.797522c0-4.921256 3.985005-8.901261 8.901261-8.901261l8.908761 0 8.901261 0 204.704 0L494.210603 449.698049 289.506603 449.698049l-8.901261 0-8.908761 0c-4.921256 0-8.901261-3.986255-8.901261-8.893761l0-17.810022c0-4.916256 3.985005-8.896261 8.901261-8.896261l8.908761 0 8.901261 0 179.538969 0L303.630371 248.682804c-6.966259-6.945008-6.966259-18.213772 0-25.158781 6.950008-6.958758 18.213772-6.958758 25.157531 0l183.218974 183.198974 183.211474-183.212724c6.965009-6.951258 18.215022-6.951258 25.180031 0 6.945008 6.946258 6.945008 18.220022 0 25.158781L554.983177 414.084255l179.523969 0 8.895011 0 8.907511 0c4.922506 0 8.895011 3.993755 8.895011 8.903761l0 17.802522c0 4.921256-3.986255 8.895011-8.895011 8.895011l-8.907511 0-8.895011 0L529.810647 449.685549l0 160.208946L734.513397 609.894495l8.902511 0 8.907511 0c4.916256 0 8.895011 3.987505 8.895011 8.895011L761.218429 636.585777zM512.006875 999.03622" p-id="3198"></path></svg>
