<?xml version="1.0" standalone="no"?><!DOCTYPE svg PUBLIC "-//W3C//DTD SVG 1.1//EN" "http://www.w3.org/Graphics/SVG/1.1/DTD/svg11.dtd">

<svg class="icon" style="width: 1em; height: 1em;vertical-align: middle;fill: currentColor;overflow: hidden;" viewBox="0 0 1024 1024" version="1.1" xmlns="http://www.w3.org/2000/svg" p-id="10259"><path d="M246.471 843.016c42.934 0 611.339-0.027 654.282 0 17.869 0 25.146 7.283 25.146 25.049 0 11.431 0.074 22.86-0.018 34.292-0.127 13.875-8.199 22.29-21.989 22.319-88.059 0.085-701.571 0.085-789.622 0-13.617-0.025-21.538-8.044-21.806-21.865-0.241-12.395-0.171-24.818-0.027-37.22 0.171-14.813 7.903-22.518 22.83-22.544 43.73-0.086 87.462-0.029 131.201-0.029v0zM152.764 628.864c0-28.132-0.085-114.977 0-143.111 0.081-23.847 11.021-34.747 34.767-34.805 17.239-0.045 34.474-0.124 51.712 0.037 20.761 0.19 32.491 11.854 32.528 32.782 0.164 57.698 0.123 174.105 0.039 231.81-0.081 21.278-12.016 33.063-33.19 33.185-17.771 0.108-35.589 0.131-53.411 0-20.26-0.164-32.195-11.745-32.359-32.048-0.29-29.299-0.081-58.576-0.081-87.846v0zM449.223 581.8c0-42.811 0-231.937 0.039-274.753 0-24.080 11.283-35.381 35.301-35.444 17.255-0.037 34.513-0.142 51.727 0.023 20.287 0.206 32.526 11.799 32.607 32.083 0.206 88.214 0.206 322.748 0 410.978-0.039 20.596-12.485 32.423-33.142 32.566-16.637 0.131-33.31 0.023-49.988 0.023-25.102-0.023-36.502-11.287-36.502-36.132-0.045-43.122-0.045-86.223-0.045-129.347v0zM866.475 523.858c0 62.559 0.045 125.133 0 187.703 0 26.038-10.606 36.645-36.498 36.645-16.654 0-33.308 0.098-49.961-0.023-20.218-0.183-32.48-11.95-32.522-32.041-0.124-128.302-0.124-463.469 0-591.767 0.039-19.843 11.724-31.381 31.858-31.774 18.066-0.351 36.169-0.251 54.231-0.039 21.585 0.251 32.809 11.518 32.851 33.263 0.127 63.715 0.045 334.303 0.045 398.033v0z" p-id="10260"></path></svg>
