<?xml version="1.0" standalone="no"?><!DOCTYPE svg PUBLIC "-//W3C//DTD SVG 1.1//EN" "http://www.w3.org/Graphics/SVG/1.1/DTD/svg11.dtd">

<svg class="icon" style="width: 1.0009765625em; height: 1em;vertical-align: middle;fill: currentColor;overflow: hidden;" viewBox="0 0 1025 1024" version="1.1" xmlns="http://www.w3.org/2000/svg" p-id="3891"><path d="M512.1338 1024c-275.2 0-505.6-224-512-499.2C-6.2662 243.2 217.7338 6.4 499.3338 0L512.1338 0c275.2 0 505.6 224 512 499.2 6.4 281.6-217.6 518.4-499.2 524.8L512.1338 1024 512.1338 1024zM512.1338 64 512.1338 64C256.1338 70.4 64.1338 275.2 64.1338 518.4 70.5338 761.6 268.9338 960 512.1338 960l6.4 0C768.1338 953.6 960.1338 748.8 960.1338 505.6 953.7338 262.4 755.3338 64 512.1338 64L512.1338 64zM537.7338 620.8 620.9338 704 576.1338 748.8l211.2 38.4L748.9338 576 704.1338 620.8 620.9338 537.6 537.7338 620.8zM486.5338 403.2 396.9338 313.6l44.8-44.8L230.5338 230.4l38.4 211.2 44.8-44.8 83.2 83.2L486.5338 403.2zM403.3338 537.6 313.7338 627.2 275.3338 582.4l-38.4 211.2L448.1338 755.2l-44.8-44.8 83.2-83.2L403.3338 537.6zM620.9338 486.4 704.1338 403.2 748.9338 448l38.4-211.2L582.5338 275.2 627.3338 320 537.7338 403.2 620.9338 486.4z" p-id="3892"></path></svg>
