<?xml version="1.0" standalone="no"?><!DOCTYPE svg PUBLIC "-//W3C//DTD SVG 1.1//EN" "http://www.w3.org/Graphics/SVG/1.1/DTD/svg11.dtd">

<svg class="icon" style="width: 1.0009765625em; height: 1em;vertical-align: middle;fill: currentColor;overflow: hidden;" viewBox="0 0 1025 1024" version="1.1" xmlns="http://www.w3.org/2000/svg" p-id="3854"><path d="M512.016875 0C229.23903 0 0 229.23403 0 512.016875 0 794.77597 229.23903 1024 512.016875 1024c282.774095 0 512.006875-229.22403 512.006875-511.983125C1024.025 229.23403 794.79097 0 512.016875 0zM282.539095 547.575668c0.08875 1.228751 0.17125 0.765001 0.2 2.040002 0.225 7.94001-6.030007 13.081266-13.968767 13.081266l-0.40625 0c-7.763759 0-14.150017-4.457505-14.378768-12.260015l-0.1375-1.748752c-0.12625-1.703752-0.23875-2.987504-0.23875-4.721256 0-160.547696 125.810154-289.365353 286.4066-293.555358 7.83751-0.435001 14.551268 6.172508 14.751268 14.116267 0.215 7.94501-6.055007 14.605018-14.013767 14.810018-144.877677 3.778755-258.370315 120.205147-258.370315 265.019074C282.382845 545.436916 282.471595 546.504417 282.539095 547.575668zM547.583168 672.678321c0 7.96376-6.455008 14.393768-14.400018 14.393768s-14.400018-6.445008-14.400018-14.393768l0-71.953838-86.337605 0c-7.95376 0-14.398768-6.455008-14.398768-14.395018 0-7.94376 6.445008-14.395018 14.398768-14.395018l86.337605 0 0-54.370066c-0.405-0.3325-0.796251-0.672501-1.172501-1.055001-0.668751-0.673751-1.255002-1.385002-1.752502-2.148753l-83.412602 0c-7.95376 0-14.398768-6.440008-14.398768-14.388768 0-7.94001 6.445008-14.390018 14.398768-14.390018l64.203828 0-56.152569-56.162569c-5.625007-5.620007-5.625007-14.711268 0-20.346275 5.630007-5.630007 14.722518-5.630007 20.357525 0l71.913838 71.928838 71.923838-71.928838c5.625007-5.630007 14.712518-5.630007 20.351275 0 5.625007 5.635007 5.625007 14.726268 0 20.346275l-56.152569 56.162569 65.043829 0c7.94376 0 14.390018 6.450008 14.390018 14.390018 0 7.94876-6.445008 14.388768-14.390018 14.388768l-84.243853 0c-0.512501 0.762501-1.093751 1.475002-1.762502 2.148753-0.1125 0.1175-0.23 0.195-0.34625 0.3075l0 55.117567 86.352605 0c7.94376 0 14.390018 6.450008 14.390018 14.395018 0 7.94001-6.445008 14.395018-14.390018 14.395018l-86.352605 0L547.581918 672.678321zM769.063439 624.932013c-31.142538 67.021332-87.358857 119.472646-158.261443 147.67143-1.757502 0.678751-3.555004 1.012501-5.312506 1.012501-5.732507 0-11.152514-3.443754-13.388766-9.083761-2.925004-7.397509 0.663751-15.765019 8.06126-18.696273 64.067578-25.452531 114.77514-72.705089 142.812674-133.037662 3.340004-7.206259 11.890015-10.361263 19.116273-6.982509C769.307189 609.155744 772.418443 617.720754 769.063439 624.932013zM512.016875 999.03622" p-id="3855"></path></svg>
